# xmcd
#
# Track frame offsets:
#	150
#	18026
#	42059
#	71025
#	94385
#	117770
#	140543
#	166263
#	183541
#	209610
#	230405
#	260620
#	279619
#	313003
#
# Disc length: 4569 seconds
#
# Revision: 0
# Processed by: cddbd v1.5.1PL2 Copyright (c) Steve Scherf et al.
# Submitted via: dBpowerAMP V4.0
#
DISCID=ca11d70e
DTITLE=Various Artist - Universal Hall - Berlin, Germany - May 16, 2003
DYEAR=1900
DGENRE=Country Rock
TTITLE0=Drunken Angel - 
TTITLE1=Ventura - 
TTITLE2=Car Wheels On A Gravel Road > [Misc. Intros] - 
TTITLE3=Fruits Of My Labor - 
TTITLE4=Those Three Days - 
TTITLE5=Blue - 
TTITLE6=Sweet Side > [Band Intros] - 
TTITLE7=I Lost It - 
TTITLE8=Still I Long For Your Kiss - 
TTITLE9=Righteously - Lucinda Williams
TTITLE10=Joy - 
TTITLE11=Changed The Locks - 
TTITLE12=Essence - 
TTITLE13=Real Live Bleeding Fingers And Broken Guitar Strings - 
EXTD=
EXTT0=
EXTT1=
EXTT2=
EXTT3=
EXTT4=
EXTT5=
EXTT6=
EXTT7=
EXTT8=
EXTT9=
EXTT10=
EXTT11=
EXTT12=
EXTT13=
PLAYORDER=
